<?xml version="1.0" encoding="UTF-8"?>
<svg xmlns="http://www.w3.org/2000/svg" xmlns:xlink="http://www.w3.org/1999/xlink" width="10px" height="10px" viewBox="0 0 10 10" version="1.1">
<g id="surface1">
<path style=" stroke:none;fill-rule:nonzero;fill:rgb(1.176471%,0.392157%,1.568627%);fill-opacity:1;" d="M 8.527344 1.457031 C 6.570312 -0.492188 3.40625 -0.484375 1.457031 1.472656 C -0.492188 3.429688 -0.484375 6.59375 1.472656 8.542969 C 3.429688 10.492188 6.597656 10.484375 8.542969 8.527344 C 10.492188 6.570312 10.484375 3.402344 8.527344 1.457031 Z M 8.527344 1.457031 "/>
<path style=" stroke:none;fill-rule:nonzero;fill:rgb(1.176471%,0.392157%,1.568627%);fill-opacity:1;" d="M 4.160156 7.476562 L 3.605469 9.109375 C 4.410156 9.367188 5.273438 9.382812 6.085938 9.160156 L 5.878906 7.464844 C 5.324219 7.664062 4.714844 7.667969 4.160156 7.476562 Z M 2.542969 4.105469 L 0.773438 3.835938 C 0.542969 4.671875 0.566406 5.5625 0.84375 6.386719 L 2.5625 5.957031 C 2.332031 5.363281 2.324219 4.703125 2.542969 4.105469 Z M 9 3.546875 L 7.449219 4.070312 C 7.695312 4.730469 7.671875 5.46875 7.371094 6.113281 L 9.042969 6.320312 C 9.335938 5.417969 9.320312 4.441406 9 3.546875 Z M 3.566406 0.902344 L 3.882812 2.632812 C 4.519531 2.332031 5.246094 2.304688 5.898438 2.542969 L 6.394531 0.933594 C 5.484375 0.605469 4.484375 0.597656 3.566406 0.902344 Z M 3.566406 0.902344 "/>
<path style=" stroke:none;fill-rule:nonzero;fill:rgb(1.176471%,0.392157%,1.568627%);fill-opacity:1;" d="M 6.914062 5 C 6.914062 6.058594 6.058594 6.914062 5 6.914062 C 3.941406 6.914062 3.085938 6.058594 3.085938 5 C 3.085938 3.941406 3.941406 3.085938 5 3.085938 C 6.058594 3.085938 6.914062 3.941406 6.914062 5 Z M 6.914062 5 "/>
</g>
</svg>
