<?xml version="1.0" encoding="UTF-8"?>
<svg xmlns="http://www.w3.org/2000/svg" xmlns:xlink="http://www.w3.org/1999/xlink" width="5px" height="5px" viewBox="0 0 5 5" version="1.1">
<g id="surface1">
<path style=" stroke:none;fill-rule:nonzero;fill:rgb(1.176471%,0.392157%,1.568627%);fill-opacity:1;" d="M 4.265625 0.726562 C 3.285156 -0.246094 1.703125 -0.242188 0.730469 0.738281 C -0.246094 1.714844 -0.242188 3.296875 0.734375 4.273438 C 1.714844 5.246094 3.296875 5.242188 4.273438 4.261719 C 5.246094 3.285156 5.242188 1.703125 4.265625 0.726562 Z M 4.265625 0.726562 "/>
<path style=" stroke:none;fill-rule:nonzero;fill:rgb(1.176471%,0.392157%,1.568627%);fill-opacity:1;" d="M 2.078125 3.738281 L 1.800781 4.554688 C 2.203125 4.683594 2.636719 4.691406 3.042969 4.582031 L 2.9375 3.734375 C 2.660156 3.832031 2.359375 3.832031 2.078125 3.738281 Z M 1.269531 2.054688 L 0.386719 1.917969 C 0.269531 2.335938 0.28125 2.78125 0.421875 3.191406 L 1.28125 2.976562 C 1.164062 2.679688 1.160156 2.351562 1.269531 2.054688 Z M 4.5 1.773438 L 3.722656 2.035156 C 3.847656 2.363281 3.835938 2.734375 3.683594 3.054688 L 4.523438 3.160156 C 4.667969 2.710938 4.660156 2.222656 4.5 1.773438 Z M 1.78125 0.449219 L 1.941406 1.316406 C 2.257812 1.167969 2.625 1.152344 2.949219 1.269531 L 3.199219 0.46875 C 2.742188 0.304688 2.242188 0.296875 1.78125 0.449219 Z M 1.78125 0.449219 "/>
<path style=" stroke:none;fill-rule:nonzero;fill:rgb(1.176471%,0.392157%,1.568627%);fill-opacity:1;" d="M 3.457031 2.5 C 3.457031 3.027344 3.027344 3.457031 2.5 3.457031 C 1.972656 3.457031 1.542969 3.027344 1.542969 2.5 C 1.542969 1.972656 1.972656 1.542969 2.5 1.542969 C 3.027344 1.542969 3.457031 1.972656 3.457031 2.5 Z M 3.457031 2.5 "/>
</g>
</svg>
